<svg xmlns="http://www.w3.org/2000/svg" version="1.1" xmlns:xlink="http://www.w3.org/1999/xlink" xmlns:svgjs="http://svgjs.dev/svgjs" width="1381" height="1380"><svg width="1381" height="1380" viewBox="0 0 1381 1380" fill="none" xmlns="http://www.w3.org/2000/svg">
<path d="M246 690.394L1134 177.85L1134 1202.85L246 690.394Z" fill="white"></path>
<rect x="43.15" y="43" width="59.375" height="30" rx="3" fill="#444444"></rect>
<rect x="43.65" y="43.5" width="58.375" height="29" rx="2.5" stroke="white" stroke-opacity="0.0980392"></rect>
<path d="M54.4938 55C54.4469 54.6042 54.2568 54.2969 53.9235 54.0781C53.5901 53.8594 53.1813 53.75 52.6969 53.75C52.3427 53.75 52.0328 53.8073 51.7672 53.9219C51.5042 54.0365 51.2985 54.194 51.15 54.3945C51.0042 54.5951 50.9313 54.8229 50.9313 55.0781C50.9313 55.2917 50.9821 55.4753 51.0836 55.6289C51.1878 55.7799 51.3206 55.9062 51.4821 56.0078C51.6435 56.1068 51.8128 56.1888 51.9899 56.2539C52.167 56.3164 52.3297 56.3672 52.4781 56.4062L53.2906 56.625C53.499 56.6797 53.7308 56.7552 53.986 56.8516C54.2438 56.9479 54.4899 57.0794 54.7242 57.2461C54.9612 57.4102 55.1565 57.6211 55.3102 57.8789C55.4638 58.1367 55.5406 58.4531 55.5406 58.8281C55.5406 59.2604 55.4274 59.651 55.2008 60C54.9768 60.349 54.6487 60.6263 54.2164 60.832C53.7867 61.0378 53.2646 61.1406 52.65 61.1406C52.0771 61.1406 51.581 61.0482 51.1617 60.8633C50.7451 60.6784 50.417 60.4206 50.1774 60.0898C49.9404 59.7591 49.8063 59.375 49.775 58.9375H50.775C50.8011 59.2396 50.9026 59.4896 51.0797 59.6875C51.2594 59.8828 51.486 60.0286 51.7594 60.125C52.0354 60.2187 52.3323 60.2656 52.65 60.2656C53.0198 60.2656 53.3518 60.2057 53.6461 60.0859C53.9404 59.9635 54.1735 59.7943 54.3453 59.5781C54.5172 59.3594 54.6031 59.1042 54.6031 58.8125C54.6031 58.5469 54.5289 58.3307 54.3805 58.1641C54.2321 57.9974 54.0367 57.862 53.7946 57.7578C53.5524 57.6536 53.2906 57.5625 53.0094 57.4844L52.025 57.2031C51.4 57.0234 50.9052 56.7669 50.5406 56.4336C50.1761 56.1003 49.9938 55.6641 49.9938 55.125C49.9938 54.6771 50.1149 54.2865 50.3571 53.9531C50.6018 53.6172 50.93 53.3568 51.3414 53.1719C51.7555 52.9844 52.2177 52.8906 52.7281 52.8906C53.2438 52.8906 53.7021 52.9831 54.1031 53.168C54.5042 53.3503 54.8219 53.6003 55.0563 53.918C55.2933 54.2357 55.4183 54.5964 55.4313 55H54.4938ZM59.524 61.125C58.9459 61.125 58.4472 60.9974 58.028 60.7422C57.6113 60.4844 57.2897 60.125 57.0631 59.6641C56.8392 59.2005 56.7272 58.6615 56.7272 58.0469C56.7272 57.4323 56.8392 56.8906 57.0631 56.4219C57.2897 55.9505 57.6048 55.5833 58.0084 55.3203C58.4147 55.0547 58.8886 54.9219 59.4303 54.9219C59.7428 54.9219 60.0514 54.974 60.3561 55.0781C60.6608 55.1823 60.9381 55.3516 61.1881 55.5859C61.4381 55.8177 61.6373 56.125 61.7858 56.5078C61.9342 56.8906 62.0084 57.362 62.0084 57.9219V58.3125H57.3834V57.5156H61.0709C61.0709 57.1771 61.0032 56.875 60.8678 56.6094C60.735 56.3437 60.5449 56.1341 60.2975 55.9805C60.0527 55.8268 59.7636 55.75 59.4303 55.75C59.0631 55.75 58.7454 55.8411 58.4772 56.0234C58.2115 56.2031 58.0071 56.4375 57.8639 56.7266C57.7207 57.0156 57.649 57.3255 57.649 57.6562V58.1875C57.649 58.6406 57.7272 59.0247 57.8834 59.3398C58.0423 59.6523 58.2623 59.8906 58.5436 60.0547C58.8248 60.2161 59.1517 60.2969 59.524 60.2969C59.7662 60.2969 59.985 60.263 60.1803 60.1953C60.3782 60.125 60.5488 60.0208 60.692 59.8828C60.8352 59.7422 60.9459 59.5677 61.024 59.3594L61.9147 59.6094C61.8209 59.9115 61.6634 60.1771 61.442 60.4062C61.2207 60.6328 60.9472 60.8099 60.6217 60.9375C60.2962 61.0625 59.9303 61.125 59.524 61.125ZM65.8483 61.125C65.2858 61.125 64.8014 60.9922 64.3951 60.7266C63.9889 60.4609 63.6764 60.0951 63.4576 59.6289C63.2389 59.1628 63.1295 58.6302 63.1295 58.0312C63.1295 57.4219 63.2415 56.8841 63.4655 56.418C63.692 55.9492 64.0071 55.5833 64.4108 55.3203C64.817 55.0547 65.291 54.9219 65.8326 54.9219C66.2545 54.9219 66.6347 55 66.9733 55.1562C67.3118 55.3125 67.5892 55.5312 67.8053 55.8125C68.0214 56.0937 68.1556 56.4219 68.2076 56.7969H67.2858C67.2155 56.5234 67.0592 56.2812 66.817 56.0703C66.5774 55.8568 66.2545 55.75 65.8483 55.75C65.4889 55.75 65.1738 55.8437 64.903 56.0312C64.6347 56.2161 64.4251 56.4779 64.274 56.8164C64.1256 57.1523 64.0514 57.5469 64.0514 58C64.0514 58.4635 64.1243 58.8672 64.2701 59.2109C64.4186 59.5547 64.6269 59.8216 64.8951 60.0117C65.166 60.2018 65.4837 60.2969 65.8483 60.2969C66.0878 60.2969 66.3053 60.2552 66.5006 60.1719C66.6959 60.0885 66.8613 59.9688 66.9967 59.8125C67.1321 59.6562 67.2285 59.4687 67.2858 59.25H68.2076C68.1556 59.6042 68.0267 59.9232 67.8209 60.207C67.6178 60.4883 67.3483 60.7122 67.0123 60.8789C66.679 61.043 66.291 61.125 65.8483 61.125ZM72.1647 55V55.7812H69.0553V55H72.1647ZM69.9615 53.5625H70.8834V59.2812C70.8834 59.5417 70.9212 59.737 70.9967 59.8672C71.0748 59.9948 71.1738 60.0807 71.2936 60.125C71.416 60.1667 71.5449 60.1875 71.6803 60.1875C71.7819 60.1875 71.8652 60.1823 71.9303 60.1719C71.9954 60.1589 72.0475 60.1484 72.0865 60.1406L72.274 60.9687C72.2115 60.9922 72.1243 61.0156 72.0123 61.0391C71.9004 61.0651 71.7584 61.0781 71.5865 61.0781C71.3261 61.0781 71.0709 61.0221 70.8209 60.9102C70.5735 60.7982 70.3678 60.6276 70.2037 60.3984C70.0423 60.1693 69.9615 59.8802 69.9615 59.5312V53.5625ZM73.5514 61V55H74.4733V61H73.5514ZM74.0201 54C73.8405 54 73.6855 53.9388 73.5553 53.8164C73.4277 53.694 73.3639 53.5469 73.3639 53.375C73.3639 53.2031 73.4277 53.056 73.5553 52.9336C73.6855 52.8112 73.8405 52.75 74.0201 52.75C74.1998 52.75 74.3535 52.8112 74.4811 52.9336C74.6113 53.056 74.6764 53.2031 74.6764 53.375C74.6764 53.5469 74.6113 53.694 74.4811 53.8164C74.3535 53.9388 74.1998 54 74.0201 54ZM78.5992 61.125C78.0576 61.125 77.5823 60.9961 77.1735 60.7383C76.7672 60.4805 76.4495 60.1198 76.2203 59.6562C75.9938 59.1927 75.8805 58.651 75.8805 58.0312C75.8805 57.4062 75.9938 56.8607 76.2203 56.3945C76.4495 55.9284 76.7672 55.5664 77.1735 55.3086C77.5823 55.0508 78.0576 54.9219 78.5992 54.9219C79.1409 54.9219 79.6149 55.0508 80.0211 55.3086C80.43 55.5664 80.7477 55.9284 80.9742 56.3945C81.2034 56.8607 81.318 57.4062 81.318 58.0312C81.318 58.651 81.2034 59.1927 80.9742 59.6562C80.7477 60.1198 80.43 60.4805 80.0211 60.7383C79.6149 60.9961 79.1409 61.125 78.5992 61.125ZM78.5992 60.2969C79.0107 60.2969 79.3492 60.1914 79.6149 59.9805C79.8805 59.7695 80.0771 59.4922 80.2047 59.1484C80.3323 58.8047 80.3961 58.4323 80.3961 58.0312C80.3961 57.6302 80.3323 57.2565 80.2047 56.9102C80.0771 56.5638 79.8805 56.2839 79.6149 56.0703C79.3492 55.8568 79.0107 55.75 78.5992 55.75C78.1878 55.75 77.8492 55.8568 77.5836 56.0703C77.318 56.2839 77.1214 56.5638 76.9938 56.9102C76.8662 57.2565 76.8024 57.6302 76.8024 58.0312C76.8024 58.4323 76.8662 58.8047 76.9938 59.1484C77.1214 59.4922 77.318 59.7695 77.5836 59.9805C77.8492 60.1914 78.1878 60.2969 78.5992 60.2969ZM83.6471 57.3906V61H82.7252V55H83.6158V55.9375H83.694C83.8346 55.6328 84.0481 55.388 84.3346 55.2031C84.6211 55.0156 84.9908 54.9219 85.444 54.9219C85.8502 54.9219 86.2057 55.0052 86.5104 55.1719C86.8151 55.3359 87.052 55.5859 87.2213 55.9219C87.3906 56.2552 87.4752 56.6771 87.4752 57.1875V61H86.5533V57.25C86.5533 56.7786 86.4309 56.4115 86.1862 56.1484C85.9414 55.8828 85.6054 55.75 85.1783 55.75C84.8841 55.75 84.6211 55.8138 84.3893 55.9414C84.1601 56.069 83.9791 56.2552 83.8463 56.5C83.7135 56.7448 83.6471 57.0417 83.6471 57.3906ZM95.0504 53V61H94.0817V54.0156H94.0348L92.0817 55.3125V54.3281L94.0817 53H95.0504Z" fill="white"></path>
</svg><style>@media (prefers-color-scheme: light) { :root { filter: none; } }
@media (prefers-color-scheme: dark) { :root { filter: none; } }
</style></svg>